<svg width="512" height="484" viewBox="0 0 512 484" fill="none" xmlns="http://www.w3.org/2000/svg">
<path d="M221.5 0.700042C211 1.60004 189.5 5.50004 178.3 8.60004C81.1999 35.2 10.2999 119.8 1.09994 220C-9.60006 335.2 63.8999 442.4 175.5 474.7C192.6 479.6 213.8 483 231.5 483.6C245.8 484.2 246.7 484.1 251 481.8C262.7 475.7 265.4 461.2 256.7 451.3C252 446 248.3 444.9 231.9 443.9C215.6 443 207.9 441.9 193.9 438.4C126.6 421.7 72.0999 371.3 50.0999 305.4C36.4999 264.4 36.4999 219.6 50.0999 178.6C59.8999 149.4 75.2999 124.1 96.9999 101.6C127.1 70.4 164.2 50.7 208.5 42.3C221.2 39.9 255 39.4 269 41.4C344.9 52.3 406.7 102.6 433 175C449.6 220.6 448 273.6 428.7 320.4L424.6 330.3L420 316.4C414.4 299.7 413 296.8 408.8 293.6C398.3 285.7 383.5 289.7 378.4 301.9C375.5 308.9 375.5 309 397.2 374.9C401.2 387 403 391.1 405.7 394.1C410 398.9 416.5 401.5 422.3 400.7C427.9 399.9 497.5 377.3 502.1 374.8C506.3 372.5 510.7 366.1 511.6 361.1C513.1 353.4 508.3 343.8 501.3 340.5C494.3 337.2 490.6 337.4 475.5 342.4C467.9 344.9 461.4 346.8 461.2 346.5C461 346.3 461.8 344 463 341.3C476.4 311.3 482.7 283.3 483.7 249.4C485.1 203.9 475.8 165 454.2 125.5C439.9 99.3 417.7 72.7 394.7 54.1C358.5 24.8 311.3 5.50004 265.1 1.00004C255.5 0.100042 230.8 -0.0999584 221.5 0.700042Z" fill="#731963"/>
</svg>
