<svg width="512" height="512" viewBox="0 0 512 512" fill="none" xmlns="http://www.w3.org/2000/svg">
<circle cx="256" cy="256" r="256" fill="#731963"/>
<path d="M408.5 114C408.5 108.753 404.247 104.5 399 104.5L313.5 104.5C308.253 104.5 304 108.753 304 114C304 119.247 308.253 123.5 313.5 123.5L389.5 123.5V199.5C389.5 204.747 393.753 209 399 209C404.247 209 408.5 204.747 408.5 199.5V114ZM263.718 262.718L405.718 120.718L392.282 107.282L250.282 249.282L263.718 262.718Z" fill="white" fill-opacity="0.37"/>
<path d="M212.75 318.234H160.859L160.578 296.438H207.688C215.469 296.438 222.266 295.125 228.078 292.5C233.891 289.875 238.391 286.125 241.578 281.25C244.859 276.281 246.5 270.375 246.5 263.531C246.5 256.031 245.047 249.938 242.141 245.25C239.328 240.469 234.969 237 229.062 234.844C223.25 232.594 215.844 231.469 206.844 231.469H166.906V414H139.766V209.25H206.844C217.344 209.25 226.719 210.328 234.969 212.484C243.219 214.547 250.203 217.828 255.922 222.328C261.734 226.734 266.141 232.359 269.141 239.203C272.141 246.047 273.641 254.25 273.641 263.812C273.641 272.25 271.484 279.891 267.172 286.734C262.859 293.484 256.859 299.016 249.172 303.328C241.578 307.641 232.672 310.406 222.453 311.625L212.75 318.234ZM211.484 414H150.172L165.5 391.922H211.484C220.109 391.922 227.422 390.422 233.422 387.422C239.516 384.422 244.156 380.203 247.344 374.766C250.531 369.234 252.125 362.719 252.125 355.219C252.125 347.625 250.766 341.062 248.047 335.531C245.328 330 241.062 325.734 235.25 322.734C229.438 319.734 221.938 318.234 212.75 318.234H174.078L174.359 296.438H227.234L233 304.312C242.844 305.156 251.188 307.969 258.031 312.75C264.875 317.438 270.078 323.438 273.641 330.75C277.297 338.062 279.125 346.125 279.125 354.938C279.125 367.688 276.312 378.469 270.688 387.281C265.156 396 257.328 402.656 247.203 407.25C237.078 411.75 225.172 414 211.484 414Z" fill="white"/>
</svg>
