<svg width="512" height="512" viewBox="0 0 512 512" fill="none" xmlns="http://www.w3.org/2000/svg">
<path d="M233 0.999933C183.6 5.79993 138 23.9999 98 54.7999C78.5 69.7999 53.2 97.9999 38.6 121C32.3 130.9 20 156.1 15.6 168.1C10.7 181.5 5.39998 202.1 2.79998 218C-0.300024 237.5 -0.300024 274.5 2.79998 294C7.29998 321.6 14.4 343.8 26.5 368.5C39.7 395.4 53.4 414.5 75.4 436.6C97.5 458.6 116.6 472.3 143.5 485.5C168.2 497.6 190.4 504.7 218 509.2C237.5 512.3 274.5 512.3 294 509.2C321.6 504.7 343.8 497.6 368.5 485.5C395.4 472.3 414.5 458.6 436.6 436.6C458.6 414.5 472.3 395.4 485.5 368.5C494.3 350.6 498.7 338.9 503.5 320.9C509.8 296.9 511.3 283.8 511.3 256C511.3 228.2 509.8 215.1 503.5 191.1C498.7 173.1 494.3 161.4 485.5 143.5C472.3 116.6 458.6 97.4999 436.6 75.3999C414.5 53.3999 395.4 39.6999 368.5 26.4999C343.9 14.3999 321.1 7.19993 294.5 2.99993C279.8 0.699933 247 -0.400067 233 0.999933ZM288.4 44.4999C333.3 51.4999 374.5 72.4999 407 105C439.8 137.8 460.5 178.6 467.7 224.5C470.1 239.7 470.1 272.3 467.7 287.5C460.5 333.4 439.8 374.2 407 407C374.2 439.8 333.4 460.5 287.5 467.7C272.3 470.1 239.7 470.1 224.5 467.7C178.6 460.5 137.8 439.8 105 407C72.2 374.2 51.5 333.4 44.3 287.5C41.9 272.3 41.9 239.7 44.3 224.5C56.4 147.4 109 82.5999 181.5 55.4999C194.5 50.5999 215.1 45.4999 227 44.0999C232.2 43.4999 237.9 42.7999 239.5 42.5999C245.8 41.6999 278.9 42.9999 288.4 44.4999Z" fill="#23967F"/>
<path d="M373 153.6C370.7 154.5 342.1 182.4 292.3 232.3L215 309.5L179.3 273.9C159.6 254.3 141.9 237.4 140 236.4C135.5 234.1 125.7 234 121.5 236.2C114.3 240 109.9 247 109.8 254.5C109.6 263.9 109.4 263.6 156.9 311.3C186.2 340.7 202.9 356.7 205.6 358C210.9 360.6 218.9 360.6 223.8 358.1C228.5 355.6 398.2 185.7 400.5 181.2C404 174.1 401.8 162.9 395.8 157.3C390.4 152.2 380.1 150.5 373 153.6Z" fill="#23967F"/>
</svg>
